# xmcd
#
# Track frame offsets:
#	150
#	19817
#	40240
#	55551
#	72924
#	92365
#	113324
#	131848
#	158999
#	175360
#	192360
#	209336
#	221871
#	231661
#	249987
#	271265
#	290247
#
# Disc length: 4097 seconds
#
# Revision: 0
# Processed by: cddbd v1.5.2PL0 Copyright (c) Steve Scherf et al.
# Submitted via: audiograbber 1.83.01
#
DISCID=fd0fff11
DTITLE=Johann Meijer - Hautnah
DYEAR=2016
DGENRE=Deutsch
TTITLE0=Drachentöters Vater
TTITLE1=Herbstlied
TTITLE2=Umarme mich  3
TTITLE3=Ohnelands Blues
TTITLE4=Insel im Roten Meer
TTITLE5=Kuckuck
TTITLE6=Kronstadt 7
TTITLE7=Keenig8
TTITLE8=Wo bleiben wir
TTITLE9=Wenn ein Freund weint
TTITLE10=Komm nicht zu nah
TTITLE11=Wenn uns nur Liebe bleibt
TTITLE12=johannes
TTITLE13=Drei Ringe
TTITLE14=Offene Landschaft
TTITLE15=Wenn sich alles dreht
TTITLE16=Südseeinsel 17
EXTD=
EXTT0=
EXTT1=
EXTT2=
EXTT3=
EXTT4=
EXTT5=
EXTT6=
EXTT7=
EXTT8=
EXTT9=
EXTT10=
EXTT11=
EXTT12=
EXTT13=
EXTT14=
EXTT15=
EXTT16=
PLAYORDER=
